<?xml version="1.0" standalone="no"?>
<!DOCTYPE svg PUBLIC "-//W3C//DTD SVG 20010904//EN"
 "http://www.w3.org/TR/2001/REC-SVG-20010904/DTD/svg10.dtd">
<svg version="1.0" xmlns="http://www.w3.org/2000/svg"
 width="1536.000000pt" height="1536.000000pt" viewBox="0 0 1536.000000 1536.000000"
 preserveAspectRatio="xMidYMid meet">
<metadata>
Created by potrace 1.11, written by Peter Selinger 2001-2013
</metadata>
<g transform="translate(0.000000,1536.000000) scale(0.100000,-0.100000)"
fill="#000000" stroke="none">
<path d="M2320 15349 c-491 -47 -981 -246 -1366 -557 -538 -433 -879 -1071
-944 -1767 -14 -153 -14 -10537 0 -10690 48 -507 242 -990 558 -1381 433 -538
1071 -879 1767 -944 153 -14 10537 -14 10690 0 507 48 990 242 1381 558 538
433 879 1071 944 1767 14 153 14 10537 0 10690 -48 507 -242 990 -558 1381
-433 538 -1071 879 -1767 944 -133 12 -10575 12 -10705 -1z m4155 -2953 c55
-14 124 -35 153 -46 329 -127 609 -412 727 -738 57 -158 69 -234 69 -432 0
-198 -12 -274 -69 -432 -119 -331 -403 -617 -735 -741 -152 -57 -241 -71 -440
-71 -199 0 -272 12 -435 70 -328 118 -613 402 -739 736 -56 149 -70 240 -70
438 0 198 12 273 69 432 123 340 417 630 760 748 73 26 185 53 260 64 17 2
102 3 190 1 130 -3 178 -8 260 -29z m3000 0 c55 -14 124 -35 153 -46 329 -127
609 -412 727 -738 57 -158 69 -234 69 -432 0 -198 -12 -274 -69 -432 -119
-331 -403 -617 -735 -741 -152 -57 -241 -71 -440 -71 -199 0 -272 12 -435 70
-328 118 -613 402 -739 736 -56 149 -70 240 -70 438 0 198 12 273 69 432 123
340 417 630 760 748 73 26 185 53 260 64 17 2 102 3 190 1 130 -3 178 -8 260
-29z m-5285 -1991 c409 -90 757 -385 904 -768 67 -173 80 -249 80 -457 0 -160
-3 -198 -23 -280 -74 -300 -238 -549 -475 -724 -138 -103 -271 -165 -451 -213
-92 -25 -115 -27 -295 -27 -180 0 -203 2 -295 27 -180 48 -313 110 -451 213
-237 175 -400 424 -475 724 -20 82 -23 119 -23 280 0 158 3 198 22 275 63 251
172 444 348 616 200 193 407 298 679 345 103 17 352 11 455 -11z m7500 0 c409
-90 757 -385 904 -768 67 -173 80 -249 80 -457 0 -160 -3 -198 -23 -280 -74
-300 -238 -549 -475 -724 -138 -103 -271 -165 -451 -213 -92 -25 -115 -27
-295 -27 -180 0 -203 2 -295 27 -180 48 -313 110 -451 213 -237 175 -400 424
-475 724 -20 82 -23 119 -23 280 0 158 3 198 22 275 63 251 172 444 348 616
200 193 407 298 679 345 103 17 352 11 455 -11z m-3599 -1748 c215 -49 424
-155 628 -316 189 -151 247 -214 902 -981 282 -331 560 -658 623 -734 32 -39
156 -170 275 -291 416 -422 578 -603 734 -822 318 -448 446 -843 416 -1283 -9
-136 -28 -208 -98 -370 -180 -414 -490 -719 -876 -863 -152 -57 -209 -67 -370
-67 -176 0 -288 11 -780 75 -773 100 -1140 134 -1575 144 -604 14 -1178 -18
-1800 -99 -720 -94 -852 -109 -1020 -119 -172 -10 -286 -1 -395 32 -474 142
-843 507 -1020 1010 -37 106 -45 142 -54 248 -24 309 33 586 189 904 166 340
382 612 931 1170 255 259 331 346 1098 1250 379 447 473 551 616 684 271 251
572 407 850 440 125 15 646 6 726 -12z"/>
</g>
</svg>
